IKResults
version=1
nRows=4
nColumns=63
inDegrees=yes

Units are S.I. units (second, meters, Newtons, ...)
If the header above contains a line with 'inDegrees', this indicates whether rotational values are in degrees (yes) or radians (no).

endheader
time	pelvis_tilt	pelvis_list	pelvis_rotation	pelvis_tx	pelvis_ty	pelvis_tz	hip_flexion_r	hip_adduction_r	hip_rotation_r	knee_angle_r	knee_angle_r_beta	ankle_angle_r	subtalar_angle_r	mtp_angle_r	hip_flexion_l	hip_adduction_l	hip_rotation_l	knee_angle_l	knee_angle_l_beta	ankle_angle_l	subtalar_angle_l	mtp_angle_l	L5_S1_Flex_Ext	L5_S1_Lat_Bending	L5_S1_axial_rotation	L4_L5_Flex_Ext	L4_L5_Lat_Bending	L4_L5_axial_rotation	L3_L4_Flex_Ext	L3_L4_Lat_Bending	L3_L4_axial_rotation	L2_L3_Flex_Ext	L2_L3_Lat_Bending	L2_L3_axial_rotation	L1_L2_Flex_Ext	L1_L2_Lat_Bending	L1_L2_axial_rotation	L1_T12_Flex_Ext	L1_T12_Lat_Bending	L1_T12_axial_rotation	Abs_r3	Abs_r2	Abs_r1	Abs_t1	Abs_t2	neck_flexion	neck_bending	neck_rotation	arm_flex_r	arm_add_r	arm_rot_r	elbow_flex_r	pro_sup_r	wrist_flex_r	wrist_dev_r	arm_flex_l	arm_add_l	arm_rot_l	elbow_flex_l	pro_sup_l	wrist_flex_l	wrist_dev_l
      6.03333333	     91.18723025	     25.29111481	    -37.82478012	     -1.03846253	      0.29824164	     -0.22617062	     17.36131583	    -22.17576260	    -34.77727237	     24.14596308	      0.42142656	      3.37161705	    -19.61153178	      0.00000000	    -21.39017676	     -6.52781788	     26.08374220	      6.64651034	      0.11600349	    -49.65968789	      4.31396377	      0.00000000	     -8.84593599	      1.61473447	     -9.27456981	    -16.42778772	      2.14759685	     -9.85423043	    -14.53298823	      3.92606539	     -9.85423043	    -10.11002024	      3.92606539	     -8.11524859	     -8.21433616	      3.29276653	     -7.53558797	     -5.05456782	      2.50122369	     -6.95592736	    -63.18563616	     18.26619927	    -51.58237493	      0.00000000	      0.00000000	     17.17972959	      8.38446893	    -43.45127251	    151.42897348	     11.40093625	    306.35631131	     34.93115979	     89.99559364	      0.00000000	      0.00000000	     73.05653606	     10.01454080	      3.68380523	     30.02674559	     89.99559364	      0.00000000	      0.00000000
      6.06666667	     91.22658874	     25.39733060	    -37.72877414	     -1.03834255	      0.29834227	     -0.22637144	     17.39169922	    -22.33786843	    -34.71061497	     24.21154021	      0.42257109	      3.32819376	    -19.61514166	      0.00000000	    -21.19445609	     -6.40739958	     26.37897102	      6.94800579	      0.12126558	    -49.57693466	      4.32245653	      0.00000000	     -8.82351245	      1.61235765	     -9.31631462	    -16.38614496	      2.14443567	     -9.89858428	    -14.49614860	      3.92028638	     -9.89858428	    -10.08439237	      3.92028638	     -8.15177529	     -8.19351366	      3.28791971	     -7.56950563	     -5.04175501	      2.49754200	     -6.98723596	    -63.02546705	     18.23931217	    -51.81454700	      0.00000000	      0.00000000	     17.25033329	      8.21607325	    -43.49714562	    151.21586269	     11.53931231	    306.47661865	     35.26230210	     89.99559364	      0.00000000	      0.00000000	     72.99940803	      9.87906223	      3.67086105	     29.96693258	     89.99559364	      0.00000000	      0.00000000
      6.10000000	     91.26902245	     25.38173776	    -37.75354651	     -1.03818365	      0.29824334	     -0.22627229	     17.36049203	    -22.34636170	    -34.69198164	     24.22509934	      0.42280775	      3.33477989	    -19.61668907	      0.00000000	    -21.20216798	     -6.39903047	     26.41308270	      7.02368867	      0.12258649	    -49.59806873	      4.32881042	      0.00000000	     -8.81517251	      1.60854311	     -9.31888947	    -16.37065686	      2.13936233	     -9.90132007	    -14.48244691	      3.91101171	     -9.90132007	    -10.07486066	      3.91101171	     -8.15402829	     -8.18576919	      3.28014111	     -7.57159770	     -5.03698957	      2.49163327	     -6.98916711	    -62.96589571	     18.19616135	    -51.82886759	      0.00000000	      0.00000000	     17.26524716	      8.17896757	    -43.44716359	    151.14183695	     11.57871101	    306.48947310	     35.27104861	     89.99559364	      0.00000000	      0.00000000	     72.92640282	      9.81062026	      3.65326178	     29.92603418	     89.99559364	      0.00000000	      0.00000000
      6.13333333	     91.33746720	     25.76406849	    -37.37620103	     -1.03809128	      0.29831297	     -0.22697996	     17.53482189	    -22.87971683	    -34.70807454	     24.47179517	      0.42711340	      3.40638649	    -19.61542575	      0.00000000	    -20.69278469	     -6.03710793	     28.22210931	      7.58888447	      0.13245102	    -49.20727142	      3.67640681	      0.00000000	     -8.74685260	      1.60193851	     -9.43383131	    -16.24377997	      2.13057822	    -10.02344577	    -14.37020414	      3.89495330	    -10.02344577	     -9.99677784	      3.89495330	     -8.25460240	     -8.12232733	      3.26667301	     -7.66498794	     -4.99795158	      2.48140276	     -7.07537348	    -62.47789347	     18.12144884	    -52.46813960	      0.00000000	      0.00000000	     16.85907533	      7.88733348	    -43.46912665	    150.62571902	     11.55851770	    307.36225896	     35.68162935	     89.99559364	      0.00000000	      0.00000000	     72.72023674	      9.70094643	      3.18119330	     29.89972557	     89.99559364	      0.00000000	      0.00000000
